<svg xmlns="http://www.w3.org/2000/svg" width="205.86" height="35" viewBox="0 0 205.86 35"><rect class="svg__rect" x="0" y="0" width="58.28" height="35" fill="#E46C17"/><rect class="svg__rect" x="56.28" y="0" width="149.58" height="35" fill="#893800"/><path class="svg__text" d="M17.33 22L14.22 22L14.22 13.47L17.14 13.47Q18.59 13.47 19.34 14.05Q20.10 14.63 20.10 15.78L20.10 15.78Q20.10 16.36 19.78 16.83Q19.47 17.30 18.86 17.56L18.86 17.56Q19.55 17.75 19.93 18.26Q20.31 18.78 20.31 19.51L20.31 19.51Q20.31 20.71 19.53 21.36Q18.76 22 17.33 22L17.33 22ZM15.70 18.15L15.70 20.82L17.35 20.82Q18.04 20.82 18.44 20.47Q18.83 20.13 18.83 19.51L18.83 19.51Q18.83 18.18 17.47 18.15L17.47 18.15L15.70 18.15ZM15.70 14.66L15.70 17.06L17.15 17.06Q17.84 17.06 18.23 16.75Q18.62 16.43 18.62 15.86L18.62 15.86Q18.62 15.23 18.26 14.95Q17.90 14.66 17.14 14.66L17.14 14.66L15.70 14.66ZM25.56 22L24.01 22L27.24 13.47L28.57 13.47L31.80 22L30.25 22L29.55 20.01L26.25 20.01L25.56 22ZM27.90 15.28L26.66 18.82L29.14 18.82L27.90 15.28ZM37.23 22L35.75 22L35.75 13.47L37.67 13.47L40.13 20.01L42.59 13.47L44.50 13.47L44.50 22L43.03 22L43.03 19.19L43.17 15.43L40.65 22L39.59 22L37.08 15.43L37.23 19.19L37.23 22Z" fill="#FFFFFF"/><path class="svg__text" d="M75.01 22L70.47 22L70.47 13.60L74.77 13.60Q76.37 13.60 77.21 14.19Q78.06 14.79 78.06 15.79L78.06 15.79Q78.06 16.39 77.76 16.87Q77.46 17.34 76.92 17.62L76.92 17.62Q77.65 17.87 78.05 18.41Q78.46 18.94 78.46 19.70L78.46 19.70Q78.46 20.80 77.57 21.40Q76.68 22 75.01 22L75.01 22ZM72.82 18.58L72.82 20.28L74.82 20.28Q76.06 20.28 76.06 19.43L76.06 19.43Q76.06 18.58 74.82 18.58L74.82 18.58L72.82 18.58ZM72.82 15.31L72.82 16.94L74.45 16.94Q75.65 16.94 75.65 16.12L75.65 16.12Q75.65 15.31 74.45 15.31L74.45 15.31L72.82 15.31ZM84.59 22L82.17 22L85.88 13.60L88.22 13.60L91.94 22L89.47 22L88.81 20.37L85.26 20.37L84.59 22ZM87.03 15.93L85.95 18.61L88.11 18.61L87.03 15.93ZM95.50 21.24L95.50 21.24L96.28 19.49Q96.85 19.86 97.59 20.09Q98.34 20.32 99.06 20.32L99.06 20.32Q100.42 20.32 100.43 19.64L100.43 19.64Q100.43 19.28 100.04 19.11Q99.65 18.93 98.78 18.74L98.78 18.74Q97.83 18.53 97.20 18.30Q96.56 18.06 96.11 17.55Q95.65 17.03 95.65 16.16L95.65 16.16Q95.65 15.39 96.07 14.77Q96.49 14.15 97.32 13.79Q98.16 13.43 99.37 13.43L99.37 13.43Q100.19 13.43 101.00 13.62Q101.80 13.80 102.42 14.17L102.42 14.17L101.69 15.93Q100.49 15.28 99.35 15.28L99.35 15.28Q98.65 15.28 98.32 15.49Q98.00 15.70 98.00 16.04L98.00 16.04Q98.00 16.37 98.38 16.54Q98.77 16.71 99.62 16.89L99.62 16.89Q100.58 17.10 101.21 17.33Q101.84 17.56 102.30 18.07Q102.76 18.58 102.76 19.46L102.76 19.46Q102.76 20.21 102.35 20.83Q101.93 21.44 101.09 21.80Q100.25 22.17 99.04 22.17L99.04 22.17Q98.02 22.17 97.06 21.92Q96.10 21.67 95.50 21.24ZM109.72 22L107.34 22L107.34 13.60L109.72 13.60L109.72 16.76L112.96 16.76L112.96 13.60L115.33 13.60L115.33 22L112.96 22L112.96 18.72L109.72 18.72L109.72 22ZM127.00 19.80L127.00 19.80Q127.00 19.01 127.42 18.42Q127.84 17.82 128.75 17.33L128.75 17.33Q127.95 16.52 127.95 15.64L127.95 15.64Q127.95 15.00 128.30 14.51Q128.65 14.02 129.29 13.75Q129.93 13.48 130.77 13.48L130.77 13.48Q131.94 13.48 132.65 14.03Q133.36 14.57 133.36 15.50L133.36 15.50Q133.36 16.15 132.98 16.65Q132.61 17.15 131.80 17.59L131.80 17.59L133.03 18.69Q133.27 18.16 133.40 17.49L133.40 17.49L135.23 18.04Q134.99 19.12 134.45 19.95L134.45 19.95L135.34 20.74L134.12 22.15L133.17 21.30Q132.58 21.72 131.86 21.95Q131.14 22.17 130.35 22.17L130.35 22.17Q129.40 22.17 128.63 21.86Q127.87 21.55 127.43 21.02Q127.00 20.48 127.00 19.80ZM129.23 19.55L129.23 19.55Q129.23 19.94 129.58 20.18Q129.93 20.43 130.52 20.43L130.52 20.43Q131.22 20.42 131.80 20.08L131.80 20.08L129.99 18.47Q129.59 18.71 129.41 18.97Q129.23 19.23 129.23 19.55ZM130.03 15.60L130.03 15.60Q130.03 15.81 130.14 15.99Q130.25 16.18 130.57 16.48L130.57 16.48Q131.05 16.23 131.24 16.01Q131.44 15.78 131.44 15.54L131.44 15.54Q131.44 15.28 131.27 15.13Q131.09 14.98 130.77 14.98L130.77 14.98Q130.42 14.98 130.22 15.15Q130.03 15.33 130.03 15.60ZM149.15 22L146.95 22L146.95 13.60L148.91 13.60L151.86 18.45L154.74 13.60L156.69 13.60L156.72 22L154.54 22L154.51 17.55L152.35 21.17L151.30 21.17L149.15 17.67L149.15 22ZM163.30 22L160.87 22L164.58 13.60L166.92 13.60L170.64 22L168.17 22L167.51 20.37L163.96 20.37L163.30 22ZM165.74 15.93L164.65 18.61L166.81 18.61L165.74 15.93ZM177.15 22L174.79 22L174.79 13.60L177.15 13.60L177.15 17.09L180.40 13.60L183.01 13.60L179.59 17.32L183.20 22L180.44 22L178.03 18.95L177.15 19.90L177.15 22ZM194.05 22L187.30 22L187.30 13.60L193.90 13.60L193.90 15.44L189.66 15.44L189.66 16.85L193.39 16.85L193.39 18.63L189.66 18.63L189.66 20.17L194.05 20.17L194.05 22Z" fill="#FFFFFF" x="69.28"/></svg>