<svg xmlns="http://www.w3.org/2000/svg" width="113.72" height="35" viewBox="0 0 113.72 35"><rect class="svg__rect" x="0" y="0" width="62.93" height="35" fill="#419B5A"/><rect class="svg__rect" x="60.93" y="0" width="52.78999999999999" height="35" fill="#8FC965"/><path class="svg__text" d="M13.78 19.42L13.78 19.42L15.27 19.42Q15.27 20.15 15.75 20.55Q16.23 20.95 17.12 20.95L17.12 20.95Q17.90 20.95 18.29 20.63Q18.68 20.32 18.68 19.80L18.68 19.80Q18.68 19.24 18.28 18.94Q17.89 18.63 16.85 18.32Q15.82 18.01 15.21 17.63L15.21 17.63Q14.05 16.90 14.05 15.72L14.05 15.72Q14.05 14.69 14.89 14.02Q15.73 13.35 17.07 13.35L17.07 13.35Q17.96 13.35 18.66 13.68Q19.36 14.01 19.75 14.61Q20.15 15.22 20.15 15.96L20.15 15.96L18.68 15.96Q18.68 15.29 18.26 14.91Q17.84 14.54 17.06 14.54L17.06 14.54Q16.33 14.54 15.93 14.85Q15.53 15.16 15.53 15.71L15.53 15.71Q15.53 16.18 15.96 16.50Q16.40 16.81 17.39 17.10Q18.39 17.40 18.99 17.78Q19.60 18.16 19.88 18.65Q20.16 19.13 20.16 19.79L20.16 19.79Q20.16 20.86 19.34 21.49Q18.52 22.12 17.12 22.12L17.12 22.12Q16.20 22.12 15.42 21.77Q14.64 21.43 14.21 20.83Q13.78 20.22 13.78 19.42ZM25.93 22L24.45 22L24.45 13.47L25.93 13.47L25.93 17.02L29.74 17.02L29.74 13.47L31.22 13.47L31.22 22L29.74 22L29.74 18.21L25.93 18.21L25.93 22ZM37.53 22L36.05 22L36.05 13.47L37.53 13.47L37.53 22ZM43.82 22L42.34 22L42.34 13.47L45.60 13.47Q47.03 13.47 47.87 14.21Q48.71 14.96 48.71 16.18L48.71 16.18Q48.71 17.44 47.89 18.13Q47.06 18.83 45.58 18.83L45.58 18.83L43.82 18.83L43.82 22ZM43.82 14.66L43.82 17.64L45.60 17.64Q46.39 17.64 46.81 17.27Q47.22 16.90 47.22 16.19L47.22 16.19Q47.22 15.50 46.80 15.09Q46.38 14.68 45.64 14.66L45.64 14.66L43.82 14.66Z" fill="#FFFFFF"/><path class="svg__text" d="M77.47 22L75.12 22L75.12 13.60L77.47 13.60L77.47 17.09L80.73 13.60L83.34 13.60L79.91 17.32L83.52 22L80.76 22L78.36 18.95L77.47 19.90L77.47 22ZM90.01 22L87.63 22L87.63 13.60L90.01 13.60L90.01 22ZM96.97 15.48L94.39 15.48L94.39 13.60L101.91 13.60L101.91 15.48L99.35 15.48L99.35 22L96.97 22L96.97 15.48Z" fill="#FFFFFF" x="73.93"/></svg>